<svg xmlns="http://www.w3.org/2000/svg" xmlns:xlink="http://www.w3.org/1999/xlink" version="1.1" id="Layer_1" x="0px" y="0px" viewBox="0 0 290 315" style="enable-background:new 0 0 290 315;" xml:space="preserve">
                    <style type="text/css">
                        .st0{opacity:0.2;}
                        .st1{fill:#DA1C22;}
                        .st2{fill:#A28ABC;}
                        .st3{fill:#92C039;}
                        .st4{fill:#3CADE9;}
                        .st5{fill:#F5E900;}
                        .st6{fill:#9D9FAF;}
                        .st7{fill:url(#SVGID_1_);}
                        .st8{fill:#8A819A;}
                        .st9{fill:#8A8A99;}
                        .st10{fill:#FFFFFF;}
                        .st11{fill:#5E5372;}
                        .st12{fill:#7C718E;}
                        .st13{fill:#877E93;}
                        .st14{fill:#274460;}
                        .st15{fill:url(#SVGID_00000076584796210813568780000011166435232906637454_);}
                        .st16{fill:url(#SVGID_00000025413992927924638330000001469224108389677195_);}
                        .st17{fill:#DE6F3F;}
                        .st18{fill:url(#SVGID_00000005981751061922662690000004840206147940366495_);}
                        .st19{fill:url(#SVGID_00000181781279999640558200000017140018873129033600_);}
                        .st20{fill:#CD803F;}
                        .st21{fill:url(#SVGID_00000021103162981312706490000003249741444182431120_);}
                        .st22{fill:#E6E7B7;}
                        .st23{fill:#CD9746;}
                        .st24{fill:#CD7E1E;}
                        .st25{fill:url(#SVGID_00000163065333453866598300000015845276147256704131_);}
                        .st26{fill:url(#SVGID_00000167363872153868630180000012658271804482355847_);}
                        .st27{opacity:0.15;}
                        .st28{fill:url(#SVGID_00000013193845970993044010000007010951002530987393_);}
                        .st29{fill:url(#SVGID_00000049185342378417734830000014483982901172864930_);}
                        .st30{fill:#5E3D06;}
                        .st31{fill:#3D648C;}
                        .st32{fill:url(#SVGID_00000067226776836375458340000000600892878186148260_);}
                        .st33{fill:url(#SVGID_00000182518506832106916090000000102663176087758988_);}
                        .st34{fill:url(#SVGID_00000158000172355368929560000005595882682810521762_);}
                        .st35{fill:url(#SVGID_00000003082362993336431950000004805119659029207964_);}
                        .st36{fill:#CF9848;}
                        .st37{opacity:0.16;fill:#957B27;}
                        .st38{fill:#1D1E1E;}
                        .st39{fill:#3D3D3D;}
                        .st40{opacity:0.1;fill:#FFFFFF;}
                        .st41{opacity:0.41;}
                        .st42{opacity:0.53;fill:#FFFFFF;}
                        .st43{fill:url(#SVGID_00000055667303180829227990000003537140866015555731_);}
                        .st44{fill:#CDCDCC;}
                        .st45{fill:#C1C0C0;}
                        .st46{fill:#E8E7E8;}
                        .st47{fill:url(#SVGID_00000019640357103995822070000011354460472019455914_);}
                        .st48{fill:#CE803F;}
                        .st49{fill:url(#SVGID_00000166659183678698920720000009444555668830377858_);}
                        .st50{fill:#3F476D;}
                        .st51{fill:#E7913A;}
                        .st52{fill:#C27A32;}
                        .st53{opacity:0.1;}
                        .st54{fill:#505783;}
                        .st55{fill:#161616;}
                        .st56{fill:url(#SVGID_00000082328041854997903060000013402746949137390259_);}
                        .st57{fill:url(#SVGID_00000078027581708860231100000007530122739121822848_);}
                        .st58{fill:#DF6F3F;}
                        .st59{fill:url(#SVGID_00000162342387938929883570000011931237463629188757_);}
                        .st60{fill:url(#SVGID_00000066515081885574871440000001448484909543095436_);}
                        .st61{fill:url(#SVGID_00000018235484387048659450000010317782761902660797_);}
                        .st62{fill:#E8E8B9;}
                        .st63{fill:#CF9946;}
                        .st64{fill:#CE7E1C;}
                        .st65{fill:url(#SVGID_00000121250174058465073430000013716975915159241102_);}
                        .st66{fill:url(#SVGID_00000080204282102289711900000004428507267290999471_);}
                        .st67{fill:url(#SVGID_00000125573891698344594540000002186130557462635702_);}
                        .st68{fill:url(#SVGID_00000134242844917968908790000005944107256578480282_);}
                        .st69{fill:url(#SVGID_00000109011078689634566860000002646934928540697264_);}
                        .st70{fill:url(#SVGID_00000082370268569015578630000002002498754701212564_);}
                        .st71{fill:url(#SVGID_00000150818133523672580550000012316476995573728654_);}
                        .st72{fill:url(#SVGID_00000124849687569008141860000016742668809603869056_);}
                        .st73{fill:url(#SVGID_00000133502670512522666860000013448427780860834469_);}
                        .st74{fill:#CF803F;}
                        .st75{fill:#E9EABA;}
                        .st76{fill:#D19A48;}
                        .st77{fill:#9D5B2A;}
                        .st78{fill:#5B2C0D;}
                        .st79{fill:url(#SVGID_00000089560861338832112130000012828954128398097061_);}
                        .st80{fill:#CECECE;}
                        .st81{fill:#C3C2C2;}
                        .st82{fill:#EAE9EA;}
                        .st83{fill:url(#SVGID_00000080164638297493858850000008580121351877601467_);}
                        .st84{fill:url(#SVGID_00000014612935797421907040000005484138541733732785_);}
                        .st85{fill:#955A2E;}
                        .st86{fill:#B36D36;}
                        .st87{fill:url(#SVGID_00000102536403866585924960000005816599845508747948_);}
                        .st88{fill:#EEF3F8;}
                        .st89{opacity:0.38;fill:none;stroke:#ECEFF3;stroke-miterlimit:10;}
                        .st90{opacity:0.38;fill:#ECEFF3;}
                        .st91{fill:url(#SVGID_00000146479626680811780020000004496904580053628064_);}
                        .st92{fill:url(#SVGID_00000101087538139248894520000017976459672655886249_);}
                        .st93{fill:url(#SVGID_00000150095362568413922620000006201716001456543912_);}
                        .st94{fill:url(#SVGID_00000073693207697732506740000004719081572382499978_);}
                        .st95{fill:#173D6B;}
                        .st96{fill:url(#SVGID_00000180360783522930263950000009113500657529205407_);}
                        .st97{fill:#E6E1C5;}
                        .st98{fill:#2A2239;}
                        .st99{fill:url(#SVGID_00000109746503757806313620000007126869519501643429_);}
                        .st100{fill:#2D2C54;}
                        .st101{fill:#133558;}
                        .st102{fill:#E5643E;}
                        .st103{fill:url(#SVGID_00000155128889306798816230000009278004370704529303_);}
                        .st104{fill:url(#SVGID_00000010269536309783708440000017499203489201786026_);}
                        .st105{fill:url(#SVGID_00000160878632531353438080000006670000877021321903_);}
                        .st106{fill:url(#SVGID_00000026157346058889071180000004716795769008944768_);}
                        .st107{fill:url(#SVGID_00000096775586221589242680000012878190893110305707_);}
                        .st108{fill:url(#SVGID_00000021814852796236808200000017680188903626320526_);}
                        .st109{fill:#343852;}
                        .st110{fill:url(#SVGID_00000031921653466814090780000014800025412340489102_);}
                        .st111{fill:#D07329;}
                        .st112{fill:url(#SVGID_00000151509725890336880930000004396246435858934178_);}
                        .st113{fill:url(#SVGID_00000114794477401292817500000012365734444752113579_);}
                        .st114{fill:url(#SVGID_00000118355372482884835940000001910489429386965933_);}
                        .st115{fill:url(#SVGID_00000127766321221359268900000001854997907937580209_);}
                        .st116{fill:url(#SVGID_00000031187328829693229470000009238035496340641430_);}
                        .st117{fill:url(#SVGID_00000103248152572402442890000003660649509896975283_);}
                    </style>
                    <g>
                        <path class="st0" d="M217.03,306.46c0,3.19-34.62,5.78-77.31,5.78s-77.31-2.59-77.31-5.78c0-2.5,21.16-4.63,50.8-5.44   c0.83-0.02,1.66-0.04,2.5-0.06c0.72-0.02,1.45-0.04,2.19-0.05c0.85-0.02,1.69-0.04,2.55-0.04c6.16-0.12,12.62-0.19,19.27-0.19   c8.84,0,17.32,0.11,25.23,0.31c0.36,0.01,0.73,0.03,1.08,0.03c0.5,0.02,0.98,0.04,1.47,0.04c0.35,0.01,0.7,0.03,1.05,0.04   C196.96,301.95,217.03,304.03,217.03,306.46z"></path>
                        <g>
                            <g>
                                
                                    <rect x="279.82" y="49.77" transform="matrix(0.4264 -0.9045 0.9045 0.4264 116.0904 287.6712)" class="st1" width="10.12" height="5.06"></rect>
                            </g>
                            <g>
                                
                                    <rect x="263.99" y="139.89" transform="matrix(0.4264 -0.9045 0.9045 0.4264 25.4864 325.0421)" class="st1" width="10.12" height="5.06"></rect>
                            </g>
                            <g>
                                
                                    <rect x="77.86" y="91.99" transform="matrix(0.6811 -0.7322 0.7322 0.6811 -42.8086 91.8112)" class="st2" width="12.26" height="6.13"></rect>
                            </g>
                            <g>
                                
                                    <rect x="205.02" y="6.27" transform="matrix(0.6811 -0.7322 0.7322 0.6811 60.5009 157.5756)" class="st2" width="12.26" height="6.13"></rect>
                            </g>
                            <g>
                                
                                    <rect x="3.68" y="139.36" transform="matrix(0.6811 -0.7322 0.7322 0.6811 -101.1528 52.6021)" class="st2" width="12.26" height="6.13"></rect>
                            </g>
                            <g>
                                
                                    <rect x="172.04" y="136.68" transform="matrix(-0.9992 0.0394 -0.0394 -0.9992 372.5398 277.5013)" class="st3" width="22.99" height="11.5"></rect>
                            </g>
                            <g>
                                
                                    <rect x="91.88" y="42.67" transform="matrix(0.2148 -0.9767 0.9767 0.2148 25.546 133.9951)" class="st1" width="8.44" height="16.87"></rect>
                            </g>
                            <g>
                                
                                    <rect x="260.38" y="86.61" transform="matrix(0.2148 -0.9767 0.9767 0.2148 114.9413 333.0623)" class="st1" width="8.44" height="16.87"></rect>
                            </g>
                            <g>
                                
                                    <rect x="52.66" y="121.61" transform="matrix(0.3539 -0.9353 0.9353 0.3539 -78.416 137.0157)" class="st3" width="14.62" height="7.31"></rect>
                            </g>
                            <g>
                                
                                    <rect x="247.67" y="183" transform="matrix(-0.5136 0.858 -0.858 -0.5136 545.0146 63.7818)" class="st2" width="13.51" height="6.75"></rect>
                            </g>
                            <g>
                                
                                    <rect x="21.11" y="87.27" transform="matrix(0.5428 0.8398 -0.8398 0.5428 89.7212 17.4463)" class="st1" width="15.46" height="7.73"></rect>
                            </g>
                            <g>
                                
                                    <rect x="145.38" y="162.83" transform="matrix(0.8461 -0.5331 0.5331 0.8461 -68.4145 106.246)" class="st2" width="8.75" height="17.51"></rect>
                            </g>
                            <g>
                                <polygon class="st4" points="208.65,163.22 219.33,155.13 223.37,160.46 212.7,168.56    "></polygon>
                            </g>
                            <g>
                                <polygon class="st4" points="240.8,39.23 251.48,31.14 255.53,36.47 244.86,44.57    "></polygon>
                            </g>
                            <g>
                                
                                    <rect x="33.24" y="11.01" transform="matrix(0.9251 -0.3798 0.3798 0.9251 -2.5109 16.4238)" class="st3" width="14.25" height="7.13"></rect>
                            </g>
                            <g>
                                
                                    <rect x="90.09" y="162.91" transform="matrix(0.5287 -0.8488 0.8488 0.5287 -95.4676 161.2422)" class="st5" width="14.75" height="7.37"></rect>
                            </g>
                            <g>
                                
                                    <rect x="48.73" y="53.36" transform="matrix(0.5287 -0.8488 0.8488 0.5287 -21.98 74.5017)" class="st5" width="14.75" height="7.37"></rect>
                            </g>
                            <g>
                                
                                    <rect x="193.9" y="41.49" transform="matrix(0.5287 -0.8488 0.8488 0.5287 56.5101 192.1321)" class="st5" width="14.75" height="7.37"></rect>
                            </g>
                            <g>
                                
                                    <rect x="212.54" y="90.63" transform="matrix(0.5287 -0.8488 0.8488 0.5287 23.5848 231.1165)" class="st5" width="14.75" height="7.37"></rect>
                            </g>
                            <g>
                                
                                    <rect x="50.08" y="162.91" transform="matrix(0.5287 -0.8488 0.8488 0.5287 -114.3262 127.2771)" class="st5" width="14.75" height="7.37"></rect>
                            </g>
                        </g>
                        <path class="st0" d="M117.18,304.86c-0.44,0.05-0.65,0.11-0.65,0.11l-0.22-1.7c0.18-0.01,0.37-0.01,0.55-0.02L117.18,304.86z"></path>
                        <path class="st6" d="M198.3,88.7c-3.76-6.53-7.53-13.05-11.29-19.58c-1.4-2.09-14.29-20.67-37.44-21.63   c-15.98-0.66-27.3,7.47-30.6,10.03c-5.99,10.4-11.99,20.8-17.98,31.2c6.52-0.01,13.03-0.02,19.55-0.03   c-0.23,40.36-0.46,80.73-0.69,121.09h59.6c-0.03-40.36-0.06-80.73-0.1-121.09C185.66,88.7,191.98,88.7,198.3,88.7z"></path>
                        <linearGradient id="SVGID_1_" gradientUnits="userSpaceOnUse" x1="137.8399" y1="314.0938" x2="153.8582" y2="6.1857">
                            <stop offset="0.3741" style="stop-color:#B1B9C5"></stop>
                            <stop offset="0.8033" style="stop-color:#FFFFFF"></stop>
                        </linearGradient>
                        <polygon class="st7" points="197.47,87.25 173.56,45.82 149.64,4.4 125.73,45.82 101.81,87.25 121.36,87.25 121.36,200.08    177.92,200.08 177.92,87.25  "></polygon>
                        <g>
                            <polygon class="st8" points="211.15,144.64 211,146.71 209.1,173.16 176.11,173.15 81.53,173.13 79.97,155.41 79.64,151.66     166.83,144.94   "></polygon>
                            <path class="st9" d="M214.67,143.68c0,5.81-0.01,6.55,0,12.28c-0.04,0-3.15,0-3.18,0c-5.99,0-36.14,0.01-42.13,0.01    c-29.85-0.15-59.71-0.3-89.57-0.45l-1.98,0.12l-1.14-11.96l88.27,0.17L214.67,143.68z"></path>
                            <path class="st10" d="M214.67,143.68c0,0.08-4.52,0.3-13.56,0.65h-0.01c-2.93,0-5.86,0-8.78,0c-0.95,0-1.9,0-2.85,0    c-1.19,0-2.38,0-3.57,0h-0.36c-0.2,0-0.4,0-0.59,0c-2.61,0-5.22,0-7.83,0c-0.04,0-0.07,0-0.11,0c-2.05,0-4.1,0-6.15,0    c-1.54,0-3.08,0-4.62,0c-0.02,0-0.03,0-0.05,0c-0.42,0-0.84,0-1.25,0c-0.82,0-1.63,0-2.45,0c-0.98,0-1.97,0-2.95,0    c-1.73,0-3.46,0-5.19,0h-0.52c-1.67,0-3.35,0-5.02,0c-2.64,0-5.28,0-7.92,0c-0.38,0-0.77,0-1.16,0c-0.01,0-0.02,0-0.03,0    c-0.03,0-0.05,0-0.08,0h-0.01c-1.1,0-2.19,0-3.3,0c0,0-0.12,0-0.24,0c-1.93,0-59.39-0.33-59.39-0.66c0-0.1,5.75-0.16,11.44-0.22    c8.8-0.09,11.63,0,25.64,0c8.88,0,17.76,0,26.65,0c1.56,0,3.12,0,4.68,0c5.47,0,10.94,0,16.4,0h5.55c0,0,0,0,0.01,0    c4.42,0,8.83,0,13.25,0c3.26,0,9.34,0.04,21.71,0.22c0.76-0.02,1.38-0.01,1.8-0.01c0.62,0.01,1.04,0.03,1.87,0.04    c0.4,0,0.73,0,0.94,0l0,0c0.6,0,1.2,0,1.79-0.01C212.58,143.63,214.67,143.62,214.67,143.68z"></path>
                        </g>
                        <g>
                            <path class="st11" d="M281.09,257.55l-0.31,2.64l-1.39,11.78l-2.58,21.91l-68.69-0.02l-33.67-0.01h-62.38c0,0,0,0-0.01,0    l-30.4-0.01H69.35l-58.18-0.01l-3.2-22.32l-0.03-0.24l-0.69-4.78l49.57-2.34l2.22-0.11l0.71-0.03l1.79-0.09l0.92-0.04l2.46-0.12    l37.23-1.76l0.41-0.02h0.01l0.52-0.03h0.09l0.12-0.01l0.77-0.03l0.15-0.01l0.29-0.01l0.34-0.02l0.99-0.05l0.78-0.03l0.15-0.01    l2.6-0.13l0.93-0.05l1.82-0.09h0.01l3.06-0.14l1.92-0.09l21.14-1l1.57-0.07l0.34-0.02c0,0.01,0.01,0,0.01,0l1.87-0.09l0.27-0.01    l0.94-0.05l1.41-0.07l0.34-0.02l0.76-0.03l0.14-0.01l0.18-0.01l0.9-0.04l1.61-0.08l0.91-0.04l6.84-0.32l0.41-0.02l0.52-0.03    l0.4-0.02l2.12-0.1l0.4-0.02l3.92-0.18l0.52-0.03l0.46-0.02l0.53-0.03l0.2-0.01l0.16-0.01l0.83-0.04l0.09-0.01l0.71-0.03    l0.53-0.02l1.19-0.06l0.09-0.01l2.1-0.1l0.36-0.01l0.52-0.03l0.14-0.01l0.54-0.03l0.89-0.04l0.51-0.03h0.01l0.38-0.02h0.05    l1.57-0.07l0.77-0.03l0.35-0.02l2.04-0.1c0.01,0,0.01,0,0.01,0l0.22-0.01h0.01l1.61-0.08c0,0,0,0,0.01,0l0.81-0.04l0.61-0.03h0.03    l0.08-0.01h0.01l1.14-0.05l0.3-0.01l0.63-0.03l0.4-0.02l1.57-0.08h0.01l1.72-0.08L281.09,257.55z"></path>
                            <path class="st9" d="M288.42,256.1c0,7.51-0.03,8.46,0,15.87c-0.07,0-6.47,0-6.54,0c-12.32,0-74.32,0.01-86.64,0.01    c-61.39-0.19-122.78-0.39-184.17-0.58l-4.07,0.16L4.65,256.1l181.5,0.23L288.42,256.1z"></path>
                            <path class="st10" d="M288.42,256.1c-34.09,0.08-68.18,0.15-102.27,0.23c-60.5-0.08-121-0.15-181.5-0.23    c7.84-4.49,15.69-8.97,23.53-13.46c50.28-0.03,100.56-0.06,150.84-0.09c27.76-0.01,55.51-0.01,83.27-0.02    C271.01,247.06,279.71,251.58,288.42,256.1z"></path>
                        </g>
                        <g>
                            <polygon class="st12" points="252.16,214.03 251.92,216.1 248.81,242.55 194.88,242.54 40.26,242.52 37.72,224.8 37.18,221.05     179.71,214.33   "></polygon>
                            <path class="st9" d="M257.92,209.45c0,7.52-0.02,8.48,0,15.89c-0.06,0-5.08,0-5.14,0c-9.67,0-58.35,0.01-68.02,0.01    c-48.19-0.19-96.39-0.39-144.58-0.58l-3.2,0.16l-1.83-15.48l142.49,0.23L257.92,209.45z"></path>
                            <path class="st10" d="M257.92,209.41c-26.76,0.02-53.52,0.05-80.29,0.07c-47.5-0.02-94.99-0.05-142.49-0.07    c6.16-1.41,12.31-2.82,18.47-4.22c39.47-0.01,78.95-0.02,118.42-0.03c21.79,0,43.58,0,65.37-0.01    C244.25,206.57,251.09,207.99,257.92,209.41z"></path>
                        </g>
                        <g>
                            <polygon class="st13" points="237.29,176.36 237.08,178.44 234.5,204.88 189.71,204.87 61.28,204.86 59.17,187.14 58.72,183.39     177.1,176.67   "></polygon>
                            <path class="st10" d="M241.54,175.44c-4.95,0-9.91,0-14.86,0.01c-17.28,0.01-34.54,0.02-51.82,0.03    c-21.46-0.01-42.93-0.01-64.39-0.02c-1.41,0-2.82,0-4.23,0c-4.71,0-9.41,0-14.12,0c-11.87,0-23.21-0.23-35.09-0.23    c5.11-0.64,9.7-1.06,14.81-1.7c6.41,0,12.82,0,19.23,0c6.06,0,12.12,0,18.19,0h1.22c1.31,0,2.62,0,3.92,0c10.19,0,20.37,0,30.56,0    c0.55,0,1.1,0,1.66,0h3.57c6.67,0,13.34,0,20.01,0h5.05c2.91,0,5.8,0,8.7,0h3.13c3.61,0,7.2,0,10.8,0h6.97c4.68,0,9.35,0,14.03,0    h5.61c0.52,0.06,1.04,0.12,1.56,0.18c0.09,0.01,0.18,0.02,0.26,0.03c1.29,0.15,2.59,0.29,3.88,0.44c0.59,0.07,1.2,0.14,1.79,0.2    c0.11,0.01,0.22,0.03,0.33,0.04c0.09,0.01,0.17,0.02,0.26,0.03C235.57,174.76,238.56,175.1,241.54,175.44z"></path>
                            <path class="st9" d="M242.07,175.22c0,5.89-0.02,6.64,0,12.46c-0.05,0-4.22,0-4.27,0c-8.03,0-48.46,0.01-56.5,0.01    c-40.03-0.15-80.06-0.3-120.09-0.46l-2.66,0.12l-1.52-12.13l118.35,0.18L242.07,175.22z"></path>
                        </g>
                        
                    </g>
					<g transform="translate(30,330) scale(0.2500,-0.2500)" fill="#665c50" stroke="none">
                                <path d="M335 857 c-26 -14 -44 -38 -44 -57 0 -11 2 -11 10 3 6 10 24 27 41 37 32 19 26 36 -7 17z"></path>
                                <path d="M440 862 c-25 -8 -50 -34 -50 -52 0 -13 9 -9 36 17 37 35 41 44 14 35z"></path>
                                <path d="M583 803 c-22 -8 -14 -18 12 -18 14 0 25 3 25 6 0 10 -23 17 -37 12z"></path>
                                <path d="M259 733 c-52 -60 -108 -153 -124 -207 -22 -73 -19 -201 5 -254 32 -71 59 -101 119 -135 l56 -32 -45 -7 c-27 -4 -11 -5 40 -2 47 2 108 4 137 4 l52 0 -15 37 c-14 32 -14 35 -1 25 8 -7 20 -26 27 -42 11 -25 18 -30 48 -30 28 0 33 3 24 12 -7 7 -12 27 -12 44 0 20 -21 73 -54 136 -51 99 -86 202 -72 216 14 13 41 -16 44 -47 6 -59 52 -50 52 11 0 29 -40 68 -71 68 -24 0 -25 17 -1 24 11 4 29 17 41 30 l22 23 -46 -3 c-25 -2 -50 -6 -56 -9 -19 -13 -48 7 -54 36 -10 43 7 57 35 29 18 -18 26 -20 45 -12 18 8 25 8 28 -1 3 -9 10 -9 31 1 15 6 35 12 46 12 26 0 60 47 60 81 l0 29 -164 0 -164 0 -33 -37z m96 -13 c0 -22 -29 -18 -33 3 -3 14 1 18 15 15 10 -2 18 -10 18 -18z"></path>
                                
                                
                                <path d="M73 520 c-44 -18 -60 -79 -30 -117 16 -22 45 2 39 32 -2 15 2 33 10 43 37 43 29 61 -19 42z"></path>
                                
                                <path d="M510 323 c0 -5 7 -16 14 -26 12 -16 14 -16 20 -1 10 26 7 34 -14 34 -11 0 -20 -3 -20 -7z"></path>
                                <path d="M121 215 c-1 -22 8 -57 19 -78 11 -21 18 -42 15 -47 -7 -11 22 -12 45 -2 28 13 22 43 -17 86 -21 23 -43 51 -50 62 -10 17 -12 14 -12 -21z"></path>
                                <path d="M579 226 c30 -32 43 -33 39 -3 -2 16 -11 23 -33 25 l-30 4 24 -26z"></path>
                                <path d="M583 166 c14 -62 20 -70 63 -79 79 -16 79 -5 1 59 l-74 62 10 -42z"></path>
                                <path d="M655 160 c10 -11 20 -20 22 -20 1 0 3 9 3 20 0 14 -7 20 -22 20 -20 0 -21 -1 -3 -20z"></path>
                    </g>
                    </svg>