<svg xmlns="http://www.w3.org/2000/svg" version="1.0" width="180.000000pt" height="87.000000pt" viewBox="0 0 180.000000 87.000000" preserveAspectRatio="xMidYMid meet">

<g transform="translate(0.000000,87.000000) scale(0.100000,-0.100000)" fill="#000000" stroke="none">
<path d="M335 857 c-26 -14 -44 -38 -44 -57 0 -11 2 -11 10 3 6 10 24 27 41 37 32 19 26 36 -7 17z"/>
<path d="M440 862 c-25 -8 -50 -34 -50 -52 0 -13 9 -9 36 17 37 35 41 44 14 35z"/>
<path d="M583 803 c-22 -8 -14 -18 12 -18 14 0 25 3 25 6 0 10 -23 17 -37 12z"/>
<path d="M259 733 c-52 -60 -108 -153 -124 -207 -22 -73 -19 -201 5 -254 32 -71 59 -101 119 -135 l56 -32 -45 -7 c-27 -4 -11 -5 40 -2 47 2 108 4 137 4 l52 0 -15 37 c-14 32 -14 35 -1 25 8 -7 20 -26 27 -42 11 -25 18 -30 48 -30 28 0 33 3 24 12 -7 7 -12 27 -12 44 0 20 -21 73 -54 136 -51 99 -86 202 -72 216 14 13 41 -16 44 -47 6 -59 52 -50 52 11 0 29 -40 68 -71 68 -24 0 -25 17 -1 24 11 4 29 17 41 30 l22 23 -46 -3 c-25 -2 -50 -6 -56 -9 -19 -13 -48 7 -54 36 -10 43 7 57 35 29 18 -18 26 -20 45 -12 18 8 25 8 28 -1 3 -9 10 -9 31 1 15 6 35 12 46 12 26 0 60 47 60 81 l0 29 -164 0 -164 0 -33 -37z m96 -13 c0 -22 -29 -18 -33 3 -3 14 1 18 15 15 10 -2 18 -10 18 -18z"/>
<path d="M120 697 c-34 -17 -50 -53 -49 -112 l1 -50 9 55 c13 78 31 100 79 100 21 0 42 5 45 10 9 14 -55 12 -85 -3z"/>
<path d="M640 663 c18 -25 21 -51 29 -253 l9 -225 -2 230 c-1 236 -7 275 -42 275 -12 0 -11 -5 6 -27z"/>
<path d="M790 370 l0 -260 29 0 c17 0 42 10 57 24 24 20 29 34 35 97 10 98 10 242 0 303 -10 58 -46 96 -92 96 l-29 0 0 -260z m76 219 c17 -19 19 -41 22 -193 2 -106 -1 -185 -8 -208 -11 -38 -42 -64 -60 -53 -6 4 -10 98 -10 241 0 221 1 234 18 234 11 0 27 -9 38 -21z"/>
<path d="M964 609 c-17 -19 -19 -41 -22 -224 -2 -112 1 -218 6 -236 7 -30 12 -34 42 -34 55 0 60 20 60 260 0 175 -3 214 -16 233 -19 28 -45 28 -70 1z m56 -14 c13 -16 19 -402 6 -443 -10 -31 -48 -26 -57 8 -11 41 -10 409 1 431 13 23 33 25 50 4z"/>
<path d="M1104 609 c-17 -19 -19 -39 -19 -246 0 -211 1 -225 19 -239 27 -19 42 -18 66 6 17 17 20 33 20 125 l0 105 -36 0 c-21 0 -33 -4 -29 -10 3 -5 15 -10 26 -10 17 0 19 -8 19 -94 0 -72 -4 -96 -16 -106 -12 -11 -18 -10 -32 4 -15 14 -17 44 -20 209 -2 119 1 203 7 220 15 39 40 45 62 16 15 -19 19 -20 19 -7 0 22 -27 48 -49 48 -10 0 -26 -9 -37 -21z"/>
<path d="M1235 620 c-4 -6 12 -10 39 -10 55 0 54 5 20 -140 -60 -257 -77 -341 -70 -347 11 -11 105 -9 106 2 0 6 -19 12 -44 15 l-44 5 30 120 c38 154 77 353 70 360 -10 9 -101 5 -107 -5z"/>
<path d="M1370 363 c0 -158 4 -253 9 -247 5 5 13 120 17 257 6 225 5 247 -10 247 -14 0 -16 -25 -16 -257z"/>
<path d="M1432 368 l3 -253 43 -3 c25 -2 42 1 42 7 0 6 -13 11 -28 11 l-29 0 -6 98 c-4 53 -7 163 -7 245 0 93 -4 147 -10 147 -7 0 -9 -86 -8 -252z"/>
<path d="M1540 371 c0 -272 -3 -261 60 -261 44 0 46 18 3 22 l-38 3 -3 243 c-1 150 -6 242 -12 242 -6 0 -10 -93 -10 -249z"/>
<path d="M1696 578 c-6 -46 -36 -413 -36 -441 0 -31 19 -18 22 16 3 28 7 32 36 35 31 3 32 2 32 -32 0 -20 5 -36 11 -36 8 0 10 18 5 58 -3 31 -10 120 -16 197 -14 186 -23 245 -40 245 -5 0 -11 -19 -14 -42z m39 -280 l7 -98 -24 0 c-14 0 -27 2 -29 4 -4 4 6 134 22 291 2 27 16 -79 24 -197z"/>
<path d="M73 520 c-44 -18 -60 -79 -30 -117 16 -22 45 2 39 32 -2 15 2 33 10 43 37 43 29 61 -19 42z"/>
<path d="M75 235 c2 -82 8 -162 14 -177 19 -50 36 -53 299 -53 l244 0 19 24 c11 13 17 26 15 29 -3 3 -14 -6 -24 -19 -19 -23 -20 -23 -254 -22 -154 0 -242 4 -256 12 -28 15 -42 68 -43 166 -1 44 -5 105 -9 135 -6 39 -8 12 -5 -95z"/>
<path d="M510 323 c0 -5 7 -16 14 -26 12 -16 14 -16 20 -1 10 26 7 34 -14 34 -11 0 -20 -3 -20 -7z"/>
<path d="M121 215 c-1 -22 8 -57 19 -78 11 -21 18 -42 15 -47 -7 -11 22 -12 45 -2 28 13 22 43 -17 86 -21 23 -43 51 -50 62 -10 17 -12 14 -12 -21z"/>
<path d="M579 226 c30 -32 43 -33 39 -3 -2 16 -11 23 -33 25 l-30 4 24 -26z"/>
<path d="M583 166 c14 -62 20 -70 63 -79 79 -16 79 -5 1 59 l-74 62 10 -42z"/>
<path d="M655 160 c10 -11 20 -20 22 -20 1 0 3 9 3 20 0 14 -7 20 -22 20 -20 0 -21 -1 -3 -20z"/>
</g>
</svg>