<svg xmlns="http://www.w3.org/2000/svg" viewBox="0 0 520.97 417.14"><defs><style>.cls-1,.cls-2,.cls-3{fill:none;stroke:#eff4f9;stroke-linecap:round;stroke-linejoin:round;stroke-width:5px;}.cls-2{stroke-dasharray:0.91 21.87 20.04 0.91;}.cls-3{stroke-dasharray:21.87 20.04 0.91 21.87 20.04 0.91;}</style></defs><title>Lines Alice Blue Brightness 98</title><g id="Layer_2" data-name="Layer 2"><g id="Layer_1-2" data-name="Layer 1"><line class="cls-1" x1="2.5" y1="2.5" x2="14.5" y2="2.5"/><line class="cls-2" x1="34.54" y1="2.5" x2="77.82" y2="2.5"/><line class="cls-3" x1="78.27" y1="2.5" x2="506.02" y2="2.5"/><line class="cls-1" x1="506.47" y1="2.5" x2="518.47" y2="2.5"/><line class="cls-1" x1="2.5" y1="28.26" x2="14.5" y2="28.26"/><line class="cls-2" x1="34.54" y1="28.26" x2="77.82" y2="28.26"/><line class="cls-3" x1="78.27" y1="28.26" x2="506.02" y2="28.26"/><line class="cls-1" x1="506.47" y1="28.26" x2="518.47" y2="28.26"/><line class="cls-1" x1="2.5" y1="54.02" x2="14.5" y2="54.02"/><line class="cls-2" x1="34.54" y1="54.02" x2="77.82" y2="54.02"/><line class="cls-3" x1="78.27" y1="54.02" x2="506.02" y2="54.02"/><line class="cls-1" x1="506.47" y1="54.02" x2="518.47" y2="54.02"/><line class="cls-1" x1="2.5" y1="79.78" x2="14.5" y2="79.78"/><line class="cls-2" x1="34.54" y1="79.78" x2="77.82" y2="79.78"/><line class="cls-3" x1="78.27" y1="79.78" x2="506.02" y2="79.78"/><line class="cls-1" x1="506.47" y1="79.78" x2="518.47" y2="79.78"/><line class="cls-1" x1="2.5" y1="105.53" x2="14.5" y2="105.53"/><line class="cls-2" x1="34.54" y1="105.53" x2="77.82" y2="105.53"/><line class="cls-3" x1="78.27" y1="105.53" x2="506.02" y2="105.53"/><line class="cls-1" x1="506.47" y1="105.53" x2="518.47" y2="105.53"/><line class="cls-1" x1="2.5" y1="131.29" x2="14.5" y2="131.29"/><line class="cls-2" x1="34.54" y1="131.29" x2="77.82" y2="131.29"/><line class="cls-3" x1="78.27" y1="131.29" x2="506.02" y2="131.29"/><line class="cls-1" x1="506.47" y1="131.29" x2="518.47" y2="131.29"/><line class="cls-1" x1="2.5" y1="157.05" x2="14.5" y2="157.05"/><line class="cls-2" x1="34.54" y1="157.05" x2="77.82" y2="157.05"/><line class="cls-3" x1="78.27" y1="157.05" x2="506.02" y2="157.05"/><line class="cls-1" x1="506.47" y1="157.05" x2="518.47" y2="157.05"/><line class="cls-1" x1="2.5" y1="182.81" x2="14.5" y2="182.81"/><line class="cls-2" x1="34.54" y1="182.81" x2="77.82" y2="182.81"/><line class="cls-3" x1="78.27" y1="182.81" x2="506.02" y2="182.81"/><line class="cls-1" x1="506.47" y1="182.81" x2="518.47" y2="182.81"/><line class="cls-1" x1="2.5" y1="208.57" x2="14.5" y2="208.57"/><line class="cls-2" x1="34.54" y1="208.57" x2="77.82" y2="208.57"/><line class="cls-3" x1="78.27" y1="208.57" x2="506.02" y2="208.57"/><line class="cls-1" x1="506.47" y1="208.57" x2="518.47" y2="208.57"/><line class="cls-1" x1="2.5" y1="234.33" x2="14.5" y2="234.33"/><line class="cls-2" x1="34.54" y1="234.33" x2="77.82" y2="234.33"/><line class="cls-3" x1="78.27" y1="234.33" x2="506.02" y2="234.33"/><line class="cls-1" x1="506.47" y1="234.33" x2="518.47" y2="234.33"/><line class="cls-1" x1="2.5" y1="260.08" x2="14.5" y2="260.08"/><line class="cls-2" x1="34.54" y1="260.08" x2="77.82" y2="260.08"/><line class="cls-3" x1="78.27" y1="260.08" x2="506.02" y2="260.08"/><line class="cls-1" x1="506.47" y1="260.08" x2="518.47" y2="260.08"/><line class="cls-1" x1="2.5" y1="285.84" x2="14.5" y2="285.84"/><line class="cls-2" x1="34.54" y1="285.84" x2="77.82" y2="285.84"/><line class="cls-3" x1="78.27" y1="285.84" x2="506.02" y2="285.84"/><line class="cls-1" x1="506.47" y1="285.84" x2="518.47" y2="285.84"/><line class="cls-1" x1="2.5" y1="311.6" x2="14.5" y2="311.6"/><line class="cls-2" x1="34.54" y1="311.6" x2="77.82" y2="311.6"/><line class="cls-3" x1="78.27" y1="311.6" x2="506.02" y2="311.6"/><line class="cls-1" x1="506.47" y1="311.6" x2="518.47" y2="311.6"/><line class="cls-1" x1="2.5" y1="337.36" x2="14.5" y2="337.36"/><line class="cls-2" x1="34.54" y1="337.36" x2="77.82" y2="337.36"/><line class="cls-3" x1="78.27" y1="337.36" x2="506.02" y2="337.36"/><line class="cls-1" x1="506.47" y1="337.36" x2="518.47" y2="337.36"/><line class="cls-1" x1="2.5" y1="363.12" x2="14.5" y2="363.12"/><line class="cls-2" x1="34.54" y1="363.12" x2="77.82" y2="363.12"/><line class="cls-3" x1="78.27" y1="363.12" x2="506.02" y2="363.12"/><line class="cls-1" x1="506.47" y1="363.12" x2="518.47" y2="363.12"/><line class="cls-1" x1="2.5" y1="388.88" x2="14.5" y2="388.88"/><line class="cls-2" x1="34.54" y1="388.88" x2="77.82" y2="388.88"/><line class="cls-3" x1="78.27" y1="388.88" x2="506.02" y2="388.88"/><line class="cls-1" x1="506.47" y1="388.88" x2="518.47" y2="388.88"/><line class="cls-1" x1="2.5" y1="414.64" x2="14.5" y2="414.64"/><line class="cls-2" x1="34.54" y1="414.64" x2="77.82" y2="414.64"/><line class="cls-3" x1="78.27" y1="414.64" x2="506.02" y2="414.64"/><line class="cls-1" x1="506.47" y1="414.64" x2="518.47" y2="414.64"/></g></g></svg>